<svg xmlns="http://www.w3.org/2000/svg" viewBox="0 0 568 501" fill="white">
  <path d="M123.121 33.6637C188.241 82.5526 258.281 181.681 284 234.873C309.719 181.681 379.759 82.5526 444.879 33.6637C491.866 -1.61183 568 -28.9064 568 57.9464C568 75.2916 558.055 189.32 552.119 210.559C531.746 279.385 462.932 296.151 401.165 285.185C513.865 303.993 541.685 379.163 474.165 454.333C346.013 597.068 289.27 431.645 286.669 423.662C285.765 421.087 284.99 419.803 284 419.803C283.01 419.803 282.235 421.087 281.331 423.662C278.73 431.645 221.987 597.068 93.8346 454.333C26.3148 379.163 54.1347 303.993 166.835 285.185C105.068 296.151 36.2536 279.385 15.8809 210.559C9.94525 189.32 0 75.2916 0 57.9464C0 -28.9064 76.1339 -1.61183 123.121 33.6637Z"/>
</svg>
