<?xml version="1.0" encoding="UTF-8" standalone="no"?>
<!DOCTYPE svg PUBLIC "-//W3C//DTD SVG 1.1//EN" "http://www.w3.org/Graphics/SVG/1.1/DTD/svg11.dtd">
<svg width="100%" height="100%" viewBox="0 0 41 41" version="1.1" xmlns="http://www.w3.org/2000/svg" xmlns:xlink="http://www.w3.org/1999/xlink" xml:space="preserve" xmlns:serif="http://www.serif.com/" style="fill-rule:evenodd;clip-rule:evenodd;stroke-linejoin:round;stroke-miterlimit:2;">
    <g transform="matrix(1,0,0,1,-3827.41,-11081.2)">
        <g transform="matrix(1,0,0,2.72561,2110.65,9246.31)">
            <g transform="matrix(0.213244,0,0,0.0782371,1710.35,670.796)">
                <path d="M142.8,120.1C137.1,120.1 132.6,125 132.6,131.1C132.6,137.2 137.2,142.1 142.8,142.1C148.5,142.1 153,137.2 153,131.1C153,125 148.4,120.1 142.8,120.1ZM106.3,120.1C100.6,120.1 96.1,125 96.1,131.1C96.1,137.2 100.7,142.1 106.3,142.1C112,142.1 116.5,137.2 116.5,131.1C116.6,125 112,120.1 106.3,120.1Z" style="fill:white;fill-rule:nonzero;"/>
            </g>
            <g transform="matrix(0.213244,0,0,0.0782371,1710.86,670.881)">
                <path d="M217.229,124.85C217.229,81.467 184.555,29.868 122.45,29.868C70.711,29.868 27.67,71.107 27.67,124.85C27.67,178.108 70.407,219.831 122.45,219.831C188.327,219.831 217.229,173.303 217.229,124.85ZM149.986,164.524C149.986,164.524 146.386,160.224 143.386,156.524C156.486,152.824 161.486,144.724 161.486,144.724C157.386,147.424 153.486,149.324 149.986,150.624C144.986,152.724 140.186,154.024 135.486,154.924C125.886,156.724 117.086,156.224 109.586,154.824C103.886,153.724 98.986,152.224 94.886,150.524C92.586,149.624 90.086,148.524 87.586,147.124C87.286,146.924 86.986,146.824 86.686,146.624C86.486,146.524 86.386,146.424 86.286,146.424C84.486,145.424 83.486,144.724 83.486,144.724C83.486,144.724 88.286,152.624 100.986,156.424C97.986,160.224 94.286,164.624 94.286,164.624C72.186,163.924 63.786,149.524 63.786,149.524C63.786,117.624 78.186,91.724 78.186,91.724C92.586,81.024 106.186,81.324 106.186,81.324L107.186,82.524C89.186,87.624 80.986,95.524 80.986,95.524C80.986,95.524 83.186,94.324 86.886,92.724C97.586,88.024 106.086,86.824 109.586,86.424C110.186,86.324 110.686,86.224 111.286,86.224C117.386,85.424 124.286,85.224 131.486,86.024C140.986,87.124 151.186,89.924 161.586,95.524C161.586,95.524 153.686,88.024 136.686,82.924L138.086,81.324C138.086,81.324 151.786,81.024 166.086,91.724C166.086,91.724 180.486,117.624 180.486,149.524C180.486,149.424 172.086,163.824 149.986,164.524Z" style="fill:white;fill-rule:nonzero;"/>
            </g>
        </g>
    </g>
</svg>
