<?xml version="1.0" encoding="UTF-8" standalone="no"?>
<!DOCTYPE svg PUBLIC "-//W3C//DTD SVG 1.1//EN" "http://www.w3.org/Graphics/SVG/1.1/DTD/svg11.dtd">
<svg width="100%" height="100%" viewBox="0 0 41 41" version="1.1" xmlns="http://www.w3.org/2000/svg" xmlns:xlink="http://www.w3.org/1999/xlink" xml:space="preserve" xmlns:serif="http://www.serif.com/" style="fill-rule:evenodd;clip-rule:evenodd;stroke-linejoin:round;stroke-miterlimit:2;">
    <path d="M20.5,0.281C20.5,0.281 0,0.242 0,20.5C0,41.242 17.046,41.021 17.046,41.021L17.134,26.1L12.047,25.978L11.958,20.258L17.081,20.258C17.081,20.258 15.929,13.495 18.957,10.152C21.486,7.36 28.693,8.369 29.225,8.419C29.304,8.426 29.281,13.287 29.281,13.287C29.281,13.287 25.796,13.1 25.061,13.465C24.699,13.645 24.246,13.738 23.657,15.119C23.097,16.431 23.426,20.258 23.426,20.258L28.942,20.258L28.059,26.083L23.419,26.034L23.426,41.021C23.426,41.021 41,41 41,20.258C41,0.003 20.5,0.281 20.5,0.281Z" style="fill:white;"/>
</svg>
